<svg xmlns="http://www.w3.org/2000/svg" width="176" height="69" viewBox="0 0 176 69">
  <g id="SvgjsG350027" transform="translate(0 3.344)">
    <g id="SvgjsG104246" transform="translate(0 0)">
      <g id="SvgjsG104247">
        <path id="Path_16" data-name="Path 16" d="M83.807,85l-1.1,2.693a2.879,2.879,0,0,1-1.53,1.53,2.614,2.614,0,0,1-2.142,0l-1.714-.734a17.734,17.734,0,0,1-3.55,3.55L74.5,93.75a2.614,2.614,0,0,1,0,2.142,2.879,2.879,0,0,1-1.53,1.53l-2.693,1.1a3.108,3.108,0,0,1-1.04.184,2.694,2.694,0,0,1-2.57-1.714l-.734-1.652a17.657,17.657,0,0,1-5.08,0l-.734,1.714a2.822,2.822,0,0,1-3.611,1.53l-2.693-1.1a2.879,2.879,0,0,1-1.53-1.53,2.614,2.614,0,0,1,0-2.142l.734-1.714a17.734,17.734,0,0,1-3.55-3.55l-1.652.673a2.7,2.7,0,0,1-3.611-1.53L43.109,85a2.7,2.7,0,0,1,1.53-3.611l1.714-.734a17.658,17.658,0,0,1,0-5.08l-1.714-.734a2.822,2.822,0,0,1-1.53-3.611l1.1-2.693a2.879,2.879,0,0,1,1.53-1.53,2.614,2.614,0,0,1,2.142,0l1.714.734a17.734,17.734,0,0,1,3.55-3.55l-.734-1.714a2.614,2.614,0,0,1,0-2.142,2.879,2.879,0,0,1,1.53-1.53l2.693-1.1a2.614,2.614,0,0,1,2.142,0,2.879,2.879,0,0,1,1.53,1.53l1.04,2.448a1.029,1.029,0,1,1-1.9.8l-1.04-2.448a.552.552,0,0,0-.367-.367.849.849,0,0,0-.551,0l-2.693,1.1a.552.552,0,0,0-.367.367.849.849,0,0,0,0,.551l1.04,2.448a1.135,1.135,0,0,1-.367,1.285,15.406,15.406,0,0,0-4.223,4.223A1.052,1.052,0,0,1,49.6,70l-2.448-1.04a.721.721,0,0,0-.918.367l-1.224,2.754a.721.721,0,0,0,.367.918l2.448,1.04a.97.97,0,0,1,.612,1.163,16.133,16.133,0,0,0,0,5.936,1.032,1.032,0,0,1-.612,1.163l-2.448,1.04a.654.654,0,0,0-.367.918l1.1,2.693a.7.7,0,0,0,.918.367l2.448-1.04a1.135,1.135,0,0,1,1.285.367,15.406,15.406,0,0,0,4.223,4.223,1.052,1.052,0,0,1,.367,1.285l-1.04,2.448a.849.849,0,0,0,0,.551.552.552,0,0,0,.367.367l2.693,1.1a.721.721,0,0,0,.918-.367l1.04-2.448A.97.97,0,0,1,60.49,93.2a16.133,16.133,0,0,0,5.936,0,1.032,1.032,0,0,1,1.163.612l1.04,2.448a.552.552,0,0,0,.367.367.849.849,0,0,0,.551,0l2.693-1.1a.552.552,0,0,0,.367-.367.849.849,0,0,0,0-.551l-1.04-2.448a1.135,1.135,0,0,1,.367-1.285,15.406,15.406,0,0,0,4.223-4.223,1.052,1.052,0,0,1,1.285-.367l2.448,1.04a.721.721,0,0,0,.918-.367l1.1-2.693a.721.721,0,0,0-.367-.918L79.1,82.305a1.029,1.029,0,0,1,.8-1.9l2.448,1.04A2.654,2.654,0,0,1,83.807,85ZM54.615,78.2a8.842,8.842,0,0,0,8.813,8.752h.061a8.9,8.9,0,0,0,8.752-8.874,1.04,1.04,0,0,0-2.081,0,6.792,6.792,0,0,1-6.671,6.793h-.061a6.732,6.732,0,0,1-.061-13.464,1.04,1.04,0,1,0,0-2.081A8.9,8.9,0,0,0,54.615,78.2ZM87.174,61.313a6.426,6.426,0,1,1-6.426-6.426A6.425,6.425,0,0,1,87.174,61.313Zm-2.081,0a4.345,4.345,0,1,0-4.345,4.345A4.362,4.362,0,0,0,85.093,61.313ZM96.6,60.273v2.142a2.325,2.325,0,0,1-2.326,2.326h-1.1a13.5,13.5,0,0,1-1.285,3.06l.8.8a2.365,2.365,0,0,1,.673,1.652,2.478,2.478,0,0,1-.673,1.652l-1.469,1.408a2.365,2.365,0,0,1-3.3,0l-.8-.8a14.768,14.768,0,0,1-3.06,1.285v1.1a2.325,2.325,0,0,1-2.326,2.326H79.585A2.325,2.325,0,0,1,77.259,74.9V73.8a13.5,13.5,0,0,1-3.06-1.285l-.673.8a2.365,2.365,0,0,1-1.652.673,2.478,2.478,0,0,1-1.652-.673L68.752,71.84a2.254,2.254,0,0,1,0-3.244l.8-.8a14.768,14.768,0,0,1-1.285-3.06h-1.1a2.325,2.325,0,0,1-2.326-2.326V60.273a2.325,2.325,0,0,1,2.326-2.326h1.1a13.5,13.5,0,0,1,1.285-3.06l-.8-.8a2.254,2.254,0,0,1,0-3.244l1.469-1.469a2.365,2.365,0,0,1,1.652-.673,2.478,2.478,0,0,1,1.652.673l.8.8a14.768,14.768,0,0,1,3.06-1.285v-1.1a2.325,2.325,0,0,1,2.326-2.326h2.142a2.325,2.325,0,0,1,2.326,2.326v1.04a13.5,13.5,0,0,1,3.06,1.285l.8-.8a2.365,2.365,0,0,1,1.652-.673,2.478,2.478,0,0,1,1.652.673L92.8,50.787a2.365,2.365,0,0,1,.673,1.652,2.478,2.478,0,0,1-.673,1.652l-.8.8a14.769,14.769,0,0,1,1.285,3.06h1.1a2.262,2.262,0,0,1,2.2,2.326Zm-2.081,0a.263.263,0,0,0-.245-.245h-1.9a1.1,1.1,0,0,1-1.04-.857,11.5,11.5,0,0,0-1.591-3.917,1.028,1.028,0,0,1,.122-1.346l1.346-1.346a.306.306,0,0,0,0-.367l-1.469-1.469a.306.306,0,0,0-.367,0l-1.285,1.469a1.028,1.028,0,0,1-1.346.122,10,10,0,0,0-3.917-1.591,1.1,1.1,0,0,1-.857-1.04V47.727a.263.263,0,0,0-.245-.245H79.585a.263.263,0,0,0-.245.245v1.958a1.1,1.1,0,0,1-.857,1.04,10.724,10.724,0,0,0-3.856,1.591,1.028,1.028,0,0,1-1.346-.122l-1.346-1.346a.306.306,0,0,0-.367,0L70.1,52.317a.278.278,0,0,0,0,.306l1.346,1.346a1.028,1.028,0,0,1,.122,1.346,10,10,0,0,0-1.591,3.917,1.1,1.1,0,0,1-1.04.857H66.977a.263.263,0,0,0-.245.245v2.142a.263.263,0,0,0,.245.245h2.142a1.1,1.1,0,0,1,1.04.857,11.5,11.5,0,0,0,1.591,3.917,1.028,1.028,0,0,1-.122,1.346l-1.346,1.346a.278.278,0,0,0,0,.306l1.469,1.469a.306.306,0,0,0,.367,0l1.346-1.346a1.129,1.129,0,0,1,.734-.306.854.854,0,0,1,.551.184,10.121,10.121,0,0,0,3.856,1.591,1.1,1.1,0,0,1,.857,1.04v1.958a.263.263,0,0,0,.245.245h2.142a.263.263,0,0,0,.245-.245V73.125a1.1,1.1,0,0,1,.857-1.04,11.5,11.5,0,0,0,3.917-1.591,1.028,1.028,0,0,1,1.346.122l1.346,1.346a.306.306,0,0,0,.367,0L91.4,70.494a.306.306,0,0,0,0-.367L90.05,68.78a1.028,1.028,0,0,1-.122-1.346,10,10,0,0,0,1.591-3.917,1.1,1.1,0,0,1,1.04-.857h1.958a.263.263,0,0,0,.245-.245V60.273Z" transform="translate(-42.883 -45.462)" fill="#fff"/>
      </g>
      <text id="LOGO" transform="translate(118 46.656)" fill="#fff" font-size="44" font-family="Saira-Medium, Saira" font-weight="500"><tspan x="-57.97" y="0">LOGO</tspan></text>
    </g>
  </g>
</svg>
